{"title":"Needle 2010 720p BRRip x264 Feel-Free","uid":6328415,"size":2183138815,"categoryP":"video","categoryS":"hd___movies","magnet":"?xt=urn:btih:5e474c20c04fa8d6c15eafb91739a2d55dd1bc8b&amp;dn=Needle+2010+720p+BRRip+x264+Feel-Free&amp;tr=udp%3A%2F%2Ftracker.openbittorrent.com%3A80&amp;tr=udp%3A%2F%2Fopen.demonii.com%3A1337&amp;tr=udp%3A%2F%2Ftracker.coppersurfer.tk%3A6969&amp;tr=udp%3A%2F%2Fexodus.desync.com%3A6969","seeders":0,"leechers":1,"uploader":"hiest","files":-1,"time":1303200534,"description":"######## ######## ######## ##          ######## ########  ######## ######## \n##       ##       ##       ##          ##       ##     ## ##       ##       \n##       ##       ##       ##          ##       ##     ## ##       ##       \n######   ######   ######   ##          ######   ########  ######   ######   \n##       ##       ##       ##          ##       ##   ##   ##       ##       \n##       ##       ##       ##          ##       ##    ##  ##       ##       \n##       ######## ######## ########    ##       ##     ## ######## ######## \n\n Genre:Drama | Horror | Mystery \n Language:English\n IMDb:\n &lt;a href=&quot; http://www.imdb.com/title/tt1545315/&quot; rel=&quot;nofollow&quot; target=&quot;_NEW&quot;&gt; http://www.imdb.com/title/tt1545315/&lt;/a&gt;\n Source:BluRay DTS x264-DNL\n\n\n Format : MPEG-4\n Format profile : Base Media\n Codec ID : isom\n File size : 2.03 GiB\n Duration : 1h 25mn\n Overall bit rate : 3 397 Kbps\n\n\n Video\n Format profile : &lt;a class=&quot;__cf_email__&quot; href=&quot;/cdn-cgi/l/email-protection&quot; data-cfemail=&quot;f1b9989699b1bdc5dfc0&quot;&gt;[email&amp;#160;protected]&lt;/a&gt;&lt;script cf-hash='f9e31' type=&quot;text/javascript&quot;&gt;\n/* &lt;![CDATA[ */!function(){try{var t=&quot;currentScript&quot;in document?document.currentScript:function(){for(var t=document.getElementsByTagName(&quot;script&quot;),e=t.length;e--;)if(t[e].getAttribute(&quot;cf-hash&quot;))return t[e]}();if(t&amp;&amp;t.previousSibling){var e,r,n,i,c=t.previousSibling,a=c.getAttribute(&quot;data-cfemail&quot;);if(a){for(e=&quot;&quot;,r=parseInt(a.substr(0,2),16),n=2;a.length-n;n+=2)i=parseInt(a.substr(n,2),16)^r,e+=String.fromCharCode(i);e=document.createTextNode(e),c.parentNode.replaceChild(e,c)}}}catch(u){}}();/* ]]&gt; */&lt;/script&gt;\n Format settings, CABAC : Yes\n Format settings, ReFrames : 3 frames\n Codec ID : avc1\n Codec ID/Info : Advanced Video Coding\n Duration : 1h 25mn\n Bit rate mode : Variable\n Bit rate : 3 000 Kbps\n Maximum bit rate : 15.7 Mbps\n Width : 1 280 pixels\n Height : 528 pixels\n Display aspect ratio : 2.40:1\n Frame rate mode : Constant\n Frame rate : 25.000 fps\n Color space : YUV\n Chroma subsampling : 4:2:0\n Bit depth : 8 bits\n Scan type : Progressive\n Bits/(Pixel*Frame) : 0.178\n Stream size : 1.76 GiB (87%)\n Writing library : x264 \n\n\n Audio\n ID : 2\n Format : AAC\n Format/Info : Advanced Audio Codec\n Format version : Version 4\n Format profile : LC\n Format settings, SBR : No\n Codec ID : 40\n Duration : 1h 25mn\n Bit rate mode : Variable\n Bit rate : 443 Kbps\n Maximum bit rate : 560 Kbps\n Channel(s) : 6 channels\n Channel positions : Front: L C R, Side: L R, LFE\n Sampling rate : 48.0 KHz\n Stream size : 271 MiB (13%)\n\n\n Plot:\n A killer uses an 18th century machine with supernatural powers to terrorize  students at Saint Mary's College. \n\n\n\n\n\n==================================  &lt;a href=&quot;\nhttp://thepiratebay.se/user/hiest&quot; rel=&quot;nofollow&quot; target=&quot;_NEW&quot;&gt;\nhttp://thepiratebay.se/user/hiest&lt;/a&gt;\n==================================\n\n\n\n\n\n Screen Shots:\n\n &lt;a href=&quot; http://www.pix2links.com/images/22050280106345368796.png&quot; rel=&quot;nofollow&quot; target=&quot;_NEW&quot;&gt; http://www.pix2links.com/images/22050280106345368796.png&lt;/a&gt;\n\n &lt;a href=&quot; http://www.pix2links.com/images/56096434200998646653.png&quot; rel=&quot;nofollow&quot; target=&quot;_NEW&quot;&gt; http://www.pix2links.com/images/56096434200998646653.png&lt;/a&gt;\n\n &lt;a href=&quot; http://www.pix2links.com/images/50128921656210659419.png&quot; rel=&quot;nofollow&quot; target=&quot;_NEW&quot;&gt; http://www.pix2links.com/images/50128921656210659419.png&lt;/a&gt;\n\n &lt;a href=&quot; http://www.pix2links.com/images/76243473339136307090.png&quot; rel=&quot;nofollow&quot; target=&quot;_NEW&quot;&gt; http://www.pix2links.com/images/76243473339136307090.png&lt;/a&gt;\n\n &lt;a href=&quot; http://www.pix2links.com/images/52360292288847170083.png&quot; rel=&quot;nofollow&quot; target=&quot;_NEW&quot;&gt; http://www.pix2links.com/images/52360292288847170083.png&lt;/a&gt;\n\n &lt;a href=&quot; http://www.pix2links.com/images/11818717619793261940.png&quot; rel=&quot;nofollow&quot; target=&quot;_NEW&quot;&gt; http://www.pix2links.com/images/11818717619793261940.png&lt;/a&gt;\n\n######## ######## ######## ##          ######## ########  ######## ######## \n##       ##       ##       ##          ##       ##     ## ##       ##       \n##       ##       ##       ##          ##       ##     ## ##       ##       \n######   ######   ######   ##          ######   ########  ######   ######   \n##       ##       ##       ##          ##       ##   ##   ##       ##       \n##       ##       ##       ##          ##       ##    ##  ##       ##       \n##       ######## ######## ########    ##       ##     ## ######## ######## ","torrent":{"xt":"urn:btih:5e474c20c04fa8d6c15eafb91739a2d55dd1bc8b","amp;dn":"Needle+2010+720p+BRRip+x264+Feel-Free","amp;tr":["udp%3A%2F%2Ftracker.openbittorrent.com%3A80","udp%3A%2F%2Fopen.demonii.com%3A1337","udp%3A%2F%2Ftracker.coppersurfer.tk%3A6969","udp%3A%2F%2Fexodus.desync.com%3A6969"],"infoHash":"5e474c20c04fa8d6c15eafb91739a2d55dd1bc8b","infoHashBuffer":{"type":"Buffer","data":[94,71,76,32,192,79,168,214,193,94,175,185,23,57,162,213,93,209,188,139]},"announce":[],"urlList":[]}}